<?xml version="1.0" encoding="UTF-8"?>
<svg xmlns="http://www.w3.org/2000/svg" xmlns:xlink="http://www.w3.org/1999/xlink" width="40pt" height="40pt" viewBox="0 0 40 40" version="1.1">
<g id="surface1">
<path style=" stroke:none;fill-rule:nonzero;fill:rgb(88.627451%,26.27451%,16.078431%);fill-opacity:1;" d="M 20.011719 40.007812 L 27.371094 15.4375 L 12.652344 15.4375 Z M 20.011719 40.007812 "/>
<path style=" stroke:none;fill-rule:nonzero;fill:rgb(98.823529%,42.745098%,14.901961%);fill-opacity:1;" d="M 20.011719 40.007812 L 12.652344 15.4375 L 2.335938 15.4375 Z M 20.011719 40.007812 "/>
<path style=" stroke:none;fill-rule:nonzero;fill:rgb(98.823529%,63.921569%,14.901961%);fill-opacity:1;" d="M 2.335938 15.4375 L 0.101562 22.90625 C -0.105469 23.585938 0.121094 24.332031 0.652344 24.753906 L 20.011719 40.007812 Z M 2.335938 15.4375 "/>
<path style=" stroke:none;fill-rule:nonzero;fill:rgb(88.627451%,26.27451%,16.078431%);fill-opacity:1;" d="M 2.335938 15.4375 L 12.652344 15.4375 L 8.21875 0.640625 C 7.992188 -0.117188 6.996094 -0.117188 6.769531 0.640625 Z M 2.335938 15.4375 "/>
<path style=" stroke:none;fill-rule:nonzero;fill:rgb(98.823529%,42.745098%,14.901961%);fill-opacity:1;" d="M 20.011719 40.007812 L 27.371094 15.4375 L 37.6875 15.4375 Z M 20.011719 40.007812 "/>
<path style=" stroke:none;fill-rule:nonzero;fill:rgb(98.823529%,63.921569%,14.901961%);fill-opacity:1;" d="M 37.6875 15.4375 L 39.921875 22.90625 C 40.128906 23.585938 39.902344 24.332031 39.371094 24.753906 L 20.011719 40.007812 Z M 37.6875 15.4375 "/>
<path style=" stroke:none;fill-rule:nonzero;fill:rgb(88.627451%,26.27451%,16.078431%);fill-opacity:1;" d="M 37.6875 15.4375 L 27.371094 15.4375 L 31.804688 0.640625 C 32.03125 -0.117188 33.027344 -0.117188 33.253906 0.640625 Z M 37.6875 15.4375 "/>
</g>
</svg>
